# 3ds Max Wavefront OBJ Exporter v0.97b - (c)2007 guruware
# File Created: 06.12.2019 05:14:38

#
# object Box001
#

v  449.3011 0.0000 -651.2056
v  449.3011 0.0000 -2313.7603
v  1925.8602 0.0000 -2313.7603
v  1925.8602 0.0000 -651.2056
v  1925.8602 3098.4651 -651.2056
v  449.3011 3098.4651 -651.2056
v  1925.8602 3098.4651 -2313.7603
v  449.3011 3098.4651 -2313.7603
v  1443.1035 3712.2124 -651.2056
v  932.0579 3712.2124 -651.2056
v  1443.1035 3712.2124 -2313.7603
v  932.0579 3712.2124 -2313.7603
# 12 vertices

vn -0.5774 -0.5774 0.5774
vn -0.5774 -0.5774 -0.5774
vn 0.5774 -0.5774 -0.5774
vn 0.5774 -0.5774 0.5774
vn 0.7258 0.2513 0.6404
vn -0.7258 0.2513 0.6404
vn 0.7258 0.2513 -0.6404
vn -0.7258 0.2513 -0.6404
vn 0.3425 0.7052 0.6207
vn -0.3425 0.7052 0.6207
vn 0.3425 0.7052 -0.6207
vn -0.3425 0.7052 -0.6207
# 12 vertex normals

vt 1.0000 0.0000 0.0000
vt 1.0000 1.0000 0.0000
vt 0.0000 1.0000 0.0000
vt 0.0000 0.0000 0.0000
# 4 texture coords

o Box001
g Box001
s 2
f 1/1/1 2/2/2 3/3/3 4/4/4 
s 8
f 1/4/1 4/1/4 5/2/5 6/3/6 
s 16
f 4/4/4 3/1/3 7/2/7 5/3/5 
s 32
f 3/4/3 2/1/2 8/2/8 7/3/7 
s 64
f 2/4/2 1/1/1 6/2/6 8/3/8 
s off
f 6/3/6 5/2/5 9/2/9 10/3/10 
f 5/3/5 7/2/7 11/2/11 9/3/9 
f 7/3/7 8/2/8 12/2/12 11/3/11 
f 8/3/8 6/2/6 10/2/10 12/3/12 
f 9/2/9 11/2/11 12/2/12 10/2/10 
# 10 polygons

